<svg width="48" height="48" viewBox="0 0 48 48" fill="none" xmlns="http://www.w3.org/2000/svg">
<rect width="48" height="48" rx="24" fill="#DDA15E"/>
<path d="M31.7714 33.894C32.1194 33.894 32.3954 33.996 32.5994 34.2C32.8034 34.404 32.9054 34.668 32.9054 34.992V36.936H15.6974V35.838C15.6974 35.61 15.7454 35.376 15.8414 35.136C15.9374 34.896 16.0874 34.674 16.2914 34.47L24.5534 26.172C25.2374 25.476 25.8614 24.81 26.4254 24.174C26.9894 23.526 27.4694 22.878 27.8654 22.23C28.2614 21.582 28.5674 20.928 28.7834 20.268C28.9994 19.596 29.1074 18.882 29.1074 18.126C29.1074 17.37 28.9874 16.71 28.7474 16.146C28.5074 15.57 28.1774 15.096 27.7574 14.724C27.3494 14.352 26.8634 14.076 26.2994 13.896C25.7354 13.704 25.1294 13.608 24.4814 13.608C23.8214 13.608 23.2154 13.704 22.6634 13.896C22.1114 14.088 21.6194 14.358 21.1874 14.706C20.7674 15.042 20.4134 15.444 20.1254 15.912C19.8374 16.38 19.6334 16.896 19.5134 17.46C19.3694 17.88 19.1714 18.162 18.9194 18.306C18.6794 18.438 18.3374 18.474 17.8934 18.414L16.2194 18.126C16.3874 16.95 16.7114 15.912 17.1914 15.012C17.6834 14.1 18.2954 13.338 19.0274 12.726C19.7714 12.114 20.6174 11.652 21.5654 11.34C22.5134 11.016 23.5394 10.854 24.6434 10.854C25.7354 10.854 26.7554 11.016 27.7034 11.34C28.6514 11.664 29.4734 12.138 30.1694 12.762C30.8654 13.374 31.4114 14.124 31.8074 15.012C32.2034 15.9 32.4014 16.908 32.4014 18.036C32.4014 18.996 32.2574 19.89 31.9694 20.718C31.6814 21.534 31.2914 22.314 30.7994 23.058C30.3074 23.802 29.7374 24.528 29.0894 25.236C28.4534 25.944 27.7754 26.658 27.0554 27.378L20.2514 34.326C20.7314 34.194 21.2174 34.092 21.7094 34.02C22.2014 33.936 22.6754 33.894 23.1314 33.894H31.7714Z" fill="#283618"/>
</svg>
