<svg width="40" height="40" viewBox="0 0 40 40" fill="none" xmlns="http://www.w3.org/2000/svg">
<path d="M28 15.366L12 6.94476" stroke="#FEFAE0" stroke-width="3" stroke-linecap="round" stroke-linejoin="round"/>
<path d="M36.875 27.0195V13.1401C36.8743 12.5316 36.7027 11.934 36.3772 11.4072C36.0518 10.8804 35.584 10.4429 35.0208 10.1387L22.0417 3.199C21.4779 2.89446 20.8384 2.73413 20.1875 2.73413C19.5366 2.73413 18.8971 2.89446 18.3333 3.199L5.35417 10.1387C4.79099 10.4429 4.32321 10.8804 3.99777 11.4072C3.67233 11.934 3.50067 12.5316 3.5 13.1401V27.0195C3.50067 27.628 3.67233 28.2256 3.99777 28.7524C4.32321 29.2793 4.79099 29.7167 5.35417 30.021L18.3333 36.9607C18.8971 37.2652 19.5366 37.4255 20.1875 37.4255C20.8384 37.4255 21.4779 37.2652 22.0417 36.9607L35.0208 30.021C35.584 29.7167 36.0518 29.2793 36.3772 28.7524C36.7027 28.2256 36.8743 27.628 36.875 27.0195Z" stroke="#FEFAE0" stroke-width="3" stroke-linecap="round" stroke-linejoin="round"/>
<path d="M4 11.3358L20.1869 20.0972L36.3737 11.3358" stroke="#FEFAE0" stroke-width="3" stroke-linecap="round" stroke-linejoin="round"/>
<path d="M20 37.5679V20.0798" stroke="#FEFAE0" stroke-width="3" stroke-linecap="round" stroke-linejoin="round"/>
</svg>
