<svg width="48" height="48" viewBox="0 0 48 48" fill="none" xmlns="http://www.w3.org/2000/svg">
<rect width="48" height="48" rx="24" fill="#DDA15E"/>
<path d="M16.3454 18.1263C16.5134 16.9503 16.8374 15.9123 17.3174 15.0123C17.7974 14.1003 18.4034 13.3383 19.1354 12.7263C19.8794 12.1143 20.7254 11.6523 21.6734 11.3403C22.6334 11.0163 23.6654 10.8543 24.7694 10.8543C25.8614 10.8543 26.8694 11.0103 27.7934 11.3223C28.7174 11.6343 29.5094 12.0783 30.1694 12.6543C30.8414 13.2303 31.3634 13.9263 31.7354 14.7423C32.1074 15.5583 32.2934 16.4643 32.2934 17.4603C32.2934 18.2763 32.1854 19.0083 31.9694 19.6563C31.7654 20.2923 31.4654 20.8503 31.0694 21.3303C30.6854 21.8103 30.2174 22.2183 29.6654 22.5543C29.1134 22.8903 28.4954 23.1663 27.8114 23.3823C29.4914 23.8143 30.7514 24.5583 31.5914 25.6143C32.4434 26.6583 32.8694 27.9663 32.8694 29.5383C32.8694 30.7263 32.6414 31.7943 32.1854 32.7423C31.7414 33.6903 31.1294 34.5003 30.3494 35.1723C29.5694 35.8323 28.6574 36.3423 27.6134 36.7023C26.5814 37.0503 25.4714 37.2243 24.2834 37.2243C22.9154 37.2243 21.7454 37.0563 20.7734 36.7203C19.8014 36.3723 18.9794 35.8983 18.3074 35.2983C17.6354 34.6983 17.0834 33.9903 16.6514 33.1743C16.2194 32.3463 15.8534 31.4523 15.5534 30.4923L16.9394 29.9163C17.2994 29.7603 17.6474 29.7183 17.9834 29.7903C18.3314 29.8623 18.5834 30.0603 18.7394 30.3843C18.8954 30.7203 19.0874 31.1223 19.3154 31.5903C19.5554 32.0583 19.8794 32.5083 20.2874 32.9403C20.6954 33.3723 21.2114 33.7383 21.8354 34.0383C22.4714 34.3383 23.2754 34.4883 24.2474 34.4883C25.1474 34.4883 25.9334 34.3443 26.6054 34.0563C27.2894 33.7563 27.8534 33.3723 28.2974 32.9043C28.7534 32.4363 29.0954 31.9143 29.3234 31.3383C29.5514 30.7623 29.6654 30.1923 29.6654 29.6283C29.6654 28.9323 29.5754 28.2963 29.3954 27.7203C29.2154 27.1443 28.8794 26.6463 28.3874 26.2263C27.8954 25.8063 27.2174 25.4763 26.3534 25.2363C25.5014 24.9963 24.4034 24.8763 23.0594 24.8763V22.5543C24.1634 22.5423 25.0994 22.4223 25.8674 22.1943C26.6474 21.9663 27.2774 21.6543 27.7574 21.2583C28.2494 20.8623 28.6034 20.3883 28.8194 19.8363C29.0474 19.2843 29.1614 18.6723 29.1614 18.0003C29.1614 17.2563 29.0414 16.6083 28.8014 16.0563C28.5734 15.5043 28.2554 15.0483 27.8474 14.6883C27.4394 14.3283 26.9534 14.0583 26.3894 13.8783C25.8374 13.6983 25.2374 13.6083 24.5894 13.6083C23.9414 13.6083 23.3354 13.7043 22.7714 13.8963C22.2194 14.0883 21.7274 14.3583 21.2954 14.7063C20.8754 15.0423 20.5214 15.4443 20.2334 15.9123C19.9454 16.3803 19.7414 16.8963 19.6214 17.4603C19.4654 17.8803 19.2674 18.1623 19.0274 18.3063C18.7994 18.4383 18.4634 18.4743 18.0194 18.4143L16.3454 18.1263Z" fill="#283618"/>
</svg>
