<svg width="60" height="60" viewBox="0 0 60 60" fill="none" xmlns="http://www.w3.org/2000/svg">
<path d="M42.2812 22.8256L17.25 8.39087" stroke="#BC6C25" stroke-width="3" stroke-linecap="round" stroke-linejoin="round"/>
<path d="M55.3125 41.1818V18.9318C55.3115 17.9563 55.054 16.9983 54.5658 16.1538C54.0777 15.3093 53.376 14.608 52.5312 14.1202L33.0625 2.99523C32.2169 2.50702 31.2577 2.25 30.2812 2.25C29.3048 2.25 28.3456 2.50702 27.5 2.99523L8.03125 14.1202C7.18648 14.608 6.48482 15.3093 5.99666 16.1538C5.5085 16.9983 5.251 17.9563 5.25 18.9318V41.1818C5.251 42.1573 5.5085 43.1153 5.99666 43.9598C6.48482 44.8043 7.18648 45.5056 8.03125 45.9934L27.5 57.1184C28.3456 57.6066 29.3048 57.8636 30.2812 57.8636C31.2577 57.8636 32.2169 57.6066 33.0625 57.1184L52.5312 45.9934C53.376 45.5056 54.0777 44.8043 54.5658 43.9598C55.054 43.1153 55.3115 42.1573 55.3125 41.1818Z" stroke="#BC6C25" stroke-width="3" stroke-linecap="round" stroke-linejoin="round"/>
<path d="M6 16.0393L30.2803 30.0846L54.5606 16.0393" stroke="#BC6C25" stroke-width="3" stroke-linecap="round" stroke-linejoin="round"/>
<path d="M30 58.0918V30.0568" stroke="#BC6C25" stroke-width="3" stroke-linecap="round" stroke-linejoin="round"/>
</svg>
